<svg xmlns="http://www.w3.org/2000/svg" viewBox="0 0 500 600">
  <defs>
    <style>
      .main-green { fill: #8dd396; stroke: #2a5a3b; stroke-width: 4; stroke-linejoin: round; }
      .dark-green { fill: #4fa163; stroke: #2a5a3b; stroke-width: 4; stroke-linejoin: round; }
      .icon-stroke { fill: none; stroke: #1b4026; stroke-width: 3; stroke-linecap: round; stroke-linejoin: round; }
      .bg-white { fill: #ffffff; stroke: #1b4026; stroke-width: 3; stroke-linejoin: round; }
      .bg-orange { fill: #f3a35a; stroke: #1b4026; stroke-width: 3; stroke-linejoin: round; }
    </style>
  </defs>

  <path d="M 120 150 L 380 150 C 390 150 395 155 395 165 L 395 210 C 395 220 390 225 380 225 L 120 225 C 110 225 105 220 105 210 L 105 165 C 105 155 110 150 120 150 Z" class="main-green" />
  <circle cx="390" cy="150" r="10" class="bg-orange" />
  <path d="M 105 210 L 105 225 C 105 235 110 240 120 240 L 380 240 C 390 240 395 235 395 225 L 395 210 Z" fill="#4fa163" stroke="#2a5a3b" stroke-width="4" stroke-linejoin="round"/>

  <path d="M 210 240 C 210 280 270 290 290 280 C 270 260 250 240 250 240 Z" class="dark-green" />
  <path d="M 210 350 C 210 390 270 400 290 390 C 270 370 250 350 250 350 Z" class="dark-green" />
  <path d="M 210 460 C 210 480 240 490 260 480 C 250 470 230 460 230 460 Z" class="dark-green" />

  <path d="M 210 240 C 180 320 260 360 300 320 C 310 260 290 240 290 240 C 270 290 230 290 220 250 Z" class="main-green" />
  <path d="M 210 350 C 180 430 260 470 300 430 C 310 370 290 350 290 350 C 270 400 230 400 220 360 Z" class="main-green" />
  <path d="M 210 460 C 190 520 240 540 280 500 C 290 470 280 450 280 450 C 260 490 230 490 220 465 Z" class="main-green" />

  <path d="M 140 270 L 180 270 C 188 270 190 275 190 285 L 190 305 C 190 315 188 320 180 320 L 175 320 L 170 335 L 160 320 L 140 320 C 132 320 130 315 130 305 L 130 285 C 130 275 132 270 140 270 Z" class="bg-white" />
  <circle cx="145" cy="295" r="3" fill="#1b4026" />
  <circle cx="160" cy="295" r="3" fill="#1b4026" />
  <circle cx="175" cy="295" r="3" fill="#1b4026" />

  <path d="M 210 260 L 245 260 C 250 260 252 263 252 268 L 252 285 C 252 290 250 293 245 293 L 240 293 L 235 305 L 225 293 L 210 293 C 205 293 203 290 203 285 L 203 268 C 203 263 205 260 210 260 Z" class="bg-white" />
  <circle cx="215" cy="276" r="2.5" fill="#1b4026" />
  <circle cx="227" cy="276" r="2.5" fill="#1b4026" />
  <circle cx="240" cy="276" r="2.5" fill="#1b4026" />

  <path d="M 260 230 L 290 230 C 295 230 297 233 297 238 L 297 255 C 297 260 295 263 290 263 L 285 263 L 280 275 L 270 263 L 260 263 C 255 263 253 260 253 255 L 253 238 C 253 233 255 230 260 230 Z" class="bg-orange" />
  <line x1="265" y1="242" x2="285" y2="242" class="icon-stroke" />
  <line x1="265" y1="250" x2="275" y2="250" class="icon-stroke" />

  <path d="M 310 280 L 320 280 L 330 270 L 330 300 L 320 290 L 310 290 Z" class="bg-orange" />
  <path d="M 338 275 C 342 280 342 290 338 295" class="icon-stroke" />
  <path d="M 345 270 C 352 280 352 290 345 300" class="icon-stroke" />

  <rect x="165" y="380" width="14" height="24" rx="7" class="bg-orange" />
  <path d="M 158 395 C 158 405 165 412 172 412 C 179 412 186 405 186 395" class="icon-stroke" />
  <line x1="172" y1="412" x2="172" y2="425" class="icon-stroke" />
  <line x1="165" y1="425" x2="179" y2="425" class="icon-stroke" />

  <circle cx="270" cy="350" r="16" class="bg-orange" />
  <path d="M 262 345 Q 265 342 268 345" class="icon-stroke" />
  <path d="M 272 345 Q 275 342 278 345" class="icon-stroke" />
  <path d="M 260 352 C 260 360 280 360 280 352" class="icon-stroke" />

  <path d="M 315 325 L 355 325 C 360 325 363 328 363 335 L 363 355 C 363 362 360 365 355 365 L 350 365 L 345 380 L 335 365 L 315 365 C 310 365 307 362 307 355 L 307 335 C 307 328 310 325 315 325 Z" class="main-green" />
  <circle cx="323" cy="345" r="3" fill="#1b4026" />
  <circle cx="335" cy="345" r="3" fill="#1b4026" />
  <circle cx="347" cy="345" r="3" fill="#1b4026" />

  <path d="M 310 430 L 320 430 L 330 420 L 330 450 L 320 440 L 310 440 Z" class="main-green" />
  <path d="M 338 425 C 342 430 342 440 338 445" class="icon-stroke" />
  <path d="M 345 420 C 352 430 352 440 345 450" class="icon-stroke" />

  <path d="M 220 470 L 250 470 C 255 470 258 473 258 478 L 258 495 C 258 500 255 503 250 503 L 245 503 L 240 515 L 230 503 L 220 503 C 215 503 212 500 212 495 L 212 478 C 212 473 215 470 220 470 Z" class="bg-white" />
  <circle cx="225" cy="486" r="2.5" fill="#1b4026" />
  <circle cx="235" cy="486" r="2.5" fill="#1b4026" />
  <circle cx="245" cy="486" r="2.5" fill="#1b4026" />
</svg>
